<svg width="1967" height="497" viewBox="0 0 1967 497" fill="none" xmlns="http://www.w3.org/2000/svg">
<path d="M0 249.999C0 186.422 51.5391 134.883 115.116 134.883H239.999V365.115H115.116C51.5392 365.115 0 313.576 0 249.999V249.999Z" fill="#00F6CF"/>
<path d="M60.9297 248.139C60.9297 210.764 91.2285 180.465 128.604 180.465H239.999V315.813H128.604C91.2284 315.813 60.9297 285.514 60.9297 248.139V248.139Z" fill="#FF0024"/>
<rect x="184.65" width="55.3487" height="179.534" rx="5" fill="#00F6CF"/>
<rect x="182.324" y="228.371" width="32.558" height="41.3952" rx="5" fill="#F2F2F2"/>
<path d="M480 246.278C480 309.854 428.461 361.394 364.884 361.394L240.001 361.394L240.001 131.162L364.884 131.162C428.461 131.162 480 182.701 480 246.278V246.278Z" fill="#00F6CF"/>
<path d="M419.07 248.138C419.07 285.513 388.772 315.812 351.396 315.812L240.001 315.812L240.001 180.464L351.396 180.464C388.772 180.464 419.07 210.762 419.07 248.138V248.138Z" fill="#0064E6"/>
<rect x="295.346" y="496.277" width="55.3487" height="179.534" rx="5" transform="rotate(-180 295.346 496.277)" fill="#00F6CF"/>
<rect x="297.676" y="267.906" width="32.558" height="41.3952" rx="5" transform="rotate(-180 297.676 267.906)" fill="#F2F2F2"/>
<path d="M588.787 326H554.02L606.995 172.545H648.805L701.705 326H666.938L628.5 207.612H627.301L588.787 326ZM586.614 265.682H668.737V291.008H586.614V265.682ZM848.529 172.545V326H820.505L753.743 229.417H752.619V326H720.175V172.545H748.648L814.885 269.054H816.234V172.545H848.529ZM929.733 326H875.334V172.545H930.182C945.618 172.545 958.905 175.618 970.045 181.762C981.184 187.856 989.751 196.623 995.745 208.062C1001.79 219.501 1004.81 233.188 1004.81 249.123C1004.81 265.108 1001.79 278.845 995.745 290.334C989.751 301.823 981.134 310.64 969.895 316.784C958.705 322.928 945.318 326 929.733 326ZM907.779 298.201H928.384C937.975 298.201 946.042 296.503 952.586 293.106C959.18 289.659 964.125 284.339 967.422 277.146C970.769 269.903 972.442 260.562 972.442 249.123C972.442 237.784 970.769 228.517 967.422 221.324C964.125 214.131 959.205 208.836 952.661 205.439C946.117 202.042 938.05 200.344 928.459 200.344H907.779V298.201ZM1028.85 326V172.545H1089.39C1100.98 172.545 1110.87 174.618 1119.06 178.765C1127.3 182.861 1133.57 188.68 1137.87 196.223C1142.21 203.716 1144.39 212.533 1144.39 222.673C1144.39 232.863 1142.19 241.63 1137.79 248.973C1133.4 256.266 1127.03 261.861 1118.69 265.757C1110.39 269.653 1100.35 271.602 1088.56 271.602H1048.03V245.526H1083.32C1089.51 245.526 1094.66 244.677 1098.75 242.979C1102.85 241.28 1105.9 238.733 1107.9 235.336C1109.94 231.939 1110.97 227.718 1110.97 222.673C1110.97 217.578 1109.94 213.282 1107.9 209.785C1105.9 206.288 1102.83 203.641 1098.68 201.843C1094.58 199.994 1089.41 199.07 1083.17 199.07H1061.29V326H1028.85ZM1111.72 256.166L1149.86 326H1114.04L1076.72 256.166H1111.72ZM1308.33 249.273C1308.33 266.007 1305.16 280.243 1298.81 291.982C1292.52 303.721 1283.93 312.688 1273.04 318.882C1262.2 325.026 1250.01 328.098 1236.47 328.098C1222.84 328.098 1210.6 325.001 1199.76 318.807C1188.92 312.613 1180.35 303.646 1174.06 291.907C1167.76 280.168 1164.62 265.957 1164.62 249.273C1164.62 232.539 1167.76 218.302 1174.06 206.563C1180.35 194.824 1188.92 185.883 1199.76 179.739C1210.6 173.545 1222.84 170.447 1236.47 170.447C1250.01 170.447 1262.2 173.545 1273.04 179.739C1283.93 185.883 1292.52 194.824 1298.81 206.563C1305.16 218.302 1308.33 232.539 1308.33 249.273ZM1275.44 249.273C1275.44 238.433 1273.81 229.292 1270.57 221.849C1267.37 214.406 1262.85 208.761 1257 204.915C1251.16 201.068 1244.32 199.145 1236.47 199.145C1228.63 199.145 1221.79 201.068 1215.94 204.915C1210.1 208.761 1205.55 214.406 1202.31 221.849C1199.11 229.292 1197.51 238.433 1197.51 249.273C1197.51 260.112 1199.11 269.254 1202.31 276.697C1205.55 284.14 1210.1 289.784 1215.94 293.631C1221.79 297.477 1228.63 299.4 1236.47 299.4C1244.32 299.4 1251.16 297.477 1257 293.631C1262.85 289.784 1267.37 284.14 1270.57 276.697C1273.81 269.254 1275.44 260.112 1275.44 249.273ZM1364.81 172.545V326H1332.36V172.545H1364.81ZM1445.9 326H1391.5V172.545H1446.35C1461.78 172.545 1475.07 175.618 1486.21 181.762C1497.35 187.856 1505.92 196.623 1511.91 208.062C1517.96 219.501 1520.98 233.188 1520.98 249.123C1520.98 265.108 1517.96 278.845 1511.91 290.334C1505.92 301.823 1497.3 310.64 1486.06 316.784C1474.87 322.928 1461.49 326 1445.9 326ZM1423.95 298.201H1444.55C1454.14 298.201 1462.21 296.503 1468.75 293.106C1475.35 289.659 1480.29 284.339 1483.59 277.146C1486.94 269.903 1488.61 260.562 1488.61 249.123C1488.61 237.784 1486.94 228.517 1483.59 221.324C1480.29 214.131 1475.37 208.836 1468.83 205.439C1462.28 202.042 1454.22 200.344 1444.63 200.344H1423.95V298.201ZM1545.01 326V172.545H1605.55C1617.19 172.545 1627.11 174.768 1635.3 179.214C1643.49 183.61 1649.74 189.729 1654.03 197.572C1658.38 205.364 1660.55 214.356 1660.55 224.546C1660.55 234.737 1658.35 243.728 1653.96 251.521C1649.56 259.313 1643.19 265.382 1634.85 269.728C1626.56 274.074 1616.52 276.247 1604.73 276.247H1566.14V250.247H1599.49C1605.73 250.247 1610.87 249.173 1614.92 247.025C1619.02 244.827 1622.06 241.805 1624.06 237.958C1626.11 234.062 1627.13 229.591 1627.13 224.546C1627.13 219.451 1626.11 215.005 1624.06 211.209C1622.06 207.362 1619.02 204.39 1614.92 202.292C1610.82 200.144 1605.63 199.07 1599.34 199.07H1577.46V326H1545.01ZM1714.07 172.545V326H1681.63V172.545H1714.07ZM1740.76 326V172.545H1773.21V299.25H1839V326H1740.76ZM1860.48 326V172.545H1892.93V299.25H1958.71V326H1860.48Z" fill="#00F6CF"/>
</svg>
